<?xml version="1.0" encoding="utf-8"?>
<!-- Generator: Adobe Illustrator 16.0.0, SVG Export Plug-In . SVG Version: 6.00 Build 0)  -->
<!DOCTYPE svg PUBLIC "-//W3C//DTD SVG 1.1//EN" "http://www.w3.org/Graphics/SVG/1.1/DTD/svg11.dtd">
<svg version="1.1" id="Layer_1" xmlns="http://www.w3.org/2000/svg" xmlns:xlink="http://www.w3.org/1999/xlink" x="0px" y="0px"
	 width="40px" height="40px" viewBox="0 0 40 40" enable-background="new 0 0 40 40" xml:space="preserve">
<path fill="#C7C8CA" stroke="#000000" stroke-miterlimit="10" d="M3.654,15.142c-2.362,0.59-2.166,9.121,0.065,10.171
	s3.281-2.297,5.25-2.362s3.938,2.765,14.436,2.821c0.199,0.001-0.194,0.001,0,0c1.132-0.007-1.484,1.331-0.521,1.255
	c1.111-0.088,6.364-1.6,7.269-1.763c6.412-1.159,7.885-3.984,7.885-5.264c0-1.368-0.124-4.248-8.123-5.594
	c-0.801-0.135-6.743-2.025-7.694-2.123c-0.583-0.06,1.894,1.459,1.251,1.415c-0.416-0.029,0.442,0.022,0,0
	c-9.64-0.473-12.73,3.281-14.305,3.281S6.016,14.551,3.654,15.142z"/>
<linearGradient id="SVGID_1_" gradientUnits="userSpaceOnUse" x1="14.0078" y1="18.2598" x2="15.8452" y2="18.2598">
	<stop  offset="0" style="stop-color:#000000"/>
	<stop  offset="1" style="stop-color:#D1D3D4"/>
</linearGradient>
<path fill="url(#SVGID_1_)" stroke="#000000" stroke-width="0.5" stroke-miterlimit="10" d="M15.845,16.52
	c0,0-1.837,0.328-1.837,1.641S15.845,20,15.845,20"/>
<linearGradient id="SVGID_2_" gradientUnits="userSpaceOnUse" x1="19.0078" y1="19.2598" x2="20.8452" y2="19.2598">
	<stop  offset="0" style="stop-color:#000000"/>
	<stop  offset="1" style="stop-color:#D1D3D4"/>
</linearGradient>
<path fill="url(#SVGID_2_)" stroke="#000000" stroke-width="0.5" stroke-miterlimit="10" d="M20.845,17.52
	c0,0-1.837,0.328-1.837,1.641S20.845,21,20.845,21"/>
<linearGradient id="SVGID_3_" gradientUnits="userSpaceOnUse" x1="16.0078" y1="22.2598" x2="17.8452" y2="22.2598">
	<stop  offset="0" style="stop-color:#000000"/>
	<stop  offset="1" style="stop-color:#D1D3D4"/>
</linearGradient>
<path fill="url(#SVGID_3_)" stroke="#000000" stroke-width="0.5" stroke-miterlimit="10" d="M17.845,20.52
	c0,0-1.837,0.328-1.837,1.641S17.845,24,17.845,24"/>
<linearGradient id="SVGID_4_" gradientUnits="userSpaceOnUse" x1="23.0078" y1="17.2598" x2="24.8457" y2="17.2598">
	<stop  offset="0" style="stop-color:#000000"/>
	<stop  offset="1" style="stop-color:#D1D3D4"/>
</linearGradient>
<path fill="url(#SVGID_4_)" stroke="#000000" stroke-width="0.5" stroke-miterlimit="10" d="M24.846,15.52
	c0,0-1.838,0.328-1.838,1.641S24.846,19,24.846,19"/>
<linearGradient id="SVGID_5_" gradientUnits="userSpaceOnUse" x1="23.0078" y1="22.2598" x2="24.8457" y2="22.2598">
	<stop  offset="0" style="stop-color:#000000"/>
	<stop  offset="1" style="stop-color:#D1D3D4"/>
</linearGradient>
<path fill="url(#SVGID_5_)" stroke="#000000" stroke-width="0.5" stroke-miterlimit="10" d="M24.846,20.52
	c0,0-1.838,0.328-1.838,1.641S24.846,24,24.846,24"/>
<linearGradient id="SVGID_6_" gradientUnits="userSpaceOnUse" x1="11.0078" y1="20.2598" x2="12.8452" y2="20.2598">
	<stop  offset="0" style="stop-color:#000000"/>
	<stop  offset="0.9657" style="stop-color:#D1D3D4"/>
	<stop  offset="1" style="stop-color:#D1D3D4"/>
</linearGradient>
<path fill="url(#SVGID_6_)" stroke="#000000" stroke-width="0.5" stroke-miterlimit="10" d="M12.845,18.52
	c0,0-1.837,0.328-1.837,1.641S12.845,22,12.845,22"/>
<linearGradient id="SVGID_7_" gradientUnits="userSpaceOnUse" x1="28.0078" y1="17.2598" x2="29.8457" y2="17.2598">
	<stop  offset="0" style="stop-color:#000000"/>
	<stop  offset="1" style="stop-color:#D1D3D4"/>
</linearGradient>
<path fill="url(#SVGID_7_)" stroke="#000000" stroke-width="0.5" stroke-miterlimit="10" d="M29.846,15.52
	c0,0-1.838,0.328-1.838,1.641S29.846,19,29.846,19"/>
<linearGradient id="SVGID_8_" gradientUnits="userSpaceOnUse" x1="27.0078" y1="22.2598" x2="28.8457" y2="22.2598">
	<stop  offset="0" style="stop-color:#000000"/>
	<stop  offset="1" style="stop-color:#D1D3D4"/>
</linearGradient>
<path fill="url(#SVGID_8_)" stroke="#000000" stroke-width="0.5" stroke-miterlimit="10" d="M28.846,20.52
	c0,0-1.838,0.328-1.838,1.641S28.846,24,28.846,24"/>
<ellipse fill="#FFFFFF" stroke="#000000" stroke-miterlimit="10" cx="33.184" cy="17.741" rx="0.197" ry="0.222"/>
<ellipse fill="#FFFFFF" stroke="#000000" stroke-miterlimit="10" cx="33.184" cy="21.741" rx="0.197" ry="0.222"/>
</svg>
