<svg width="40" height="40" xmlns="http://www.w3.org/2000/svg">
 <g>
  <title>Layer 1</title>
  <path id="svg_1" d="m15.488,36.002c0.59,2.361 9.122,2.166 10.171,-0.065c1.051,-2.231 -2.297,-3.281 -2.361,-5.25c-0.065,-1.969 2.765,-3.938 2.82,-14.436c0.002,-0.199 0.002,0.192 0,0c-0.006,-1.134 1.332,1.482 1.256,0.521c-0.088,-1.111 -1.603,-6.364 -1.764,-7.271c-1.158,-6.412 -3.984,-7.886 -5.266,-7.886c-1.368,0 -4.248,0.124 -5.594,8.123c-0.135,0.802 -2.025,6.743 -2.123,7.694c-0.06,0.582 1.459,-1.896 1.415,-1.252c-0.029,0.416 0.021,-0.441 0,0c-0.473,9.641 3.281,12.729 3.281,14.306s-2.426,3.154 -1.835,5.516z" stroke-miterlimit="10" stroke="#000000" fill="#999999"/>
  <ellipse id="svg_2" ry="0.197" rx="0.222" cy="6.472" cx="18.087" stroke-miterlimit="10" stroke="#000000" fill="#FFFFFF"/>
  <ellipse id="svg_3" ry="0.197" rx="0.222" cy="6.472" cx="22.088" stroke-miterlimit="10" stroke="#000000" fill="#FFFFFF"/>
  <path d="m16.82759,10.96552c-0.06897,0 -0.13793,0 -0.2069,0c-0.2069,0 -0.27586,0 -0.41379,0c-0.06896,0 -0.2069,0 -0.27586,0c-0.06896,0 -0.13793,0 -0.2069,0c0,0 -0.06897,0 -0.13793,0l0,0l-0.06896,0l-0.06897,0" id="svg_12" stroke-linecap="null" stroke-linejoin="null" stroke-dasharray="null" stroke-width="null" stroke="#000000" fill="none"/>
  <path d="m17.86207,13.37931c0,0 -0.06896,0 -0.34483,0c-0.27586,0 -0.48276,0 -0.82759,0c-0.27586,0 -0.48276,0 -0.68966,0c-0.2069,0 -0.41379,0 -0.55172,0c-0.13793,0 -0.34483,0 -0.41379,0l-0.06897,0l0,0" id="svg_13" stroke-linecap="null" stroke-linejoin="null" stroke-dasharray="null" stroke-width="null" stroke="#000000" fill="none"/>
  <path d="m17.58621,16.13793c-0.06897,0 -0.13793,0 -0.27586,0c-0.27586,0 -0.48276,0 -0.68966,0c-0.2069,0 -0.41379,0 -0.62069,0c-0.2069,0 -0.41379,0 -0.55172,0c-0.13793,0 -0.27586,0 -0.34483,0c-0.06896,0 -0.13793,0 -0.27586,0l-0.06897,0l0.06897,0" id="svg_14" stroke-linecap="null" stroke-linejoin="null" stroke-dasharray="null" stroke-width="null" stroke="#000000" fill="none"/>
  <path d="m17.44828,19.17241c-0.13793,0 -0.34483,0 -0.55173,0c-0.27586,0 -0.41379,0 -0.68966,0c-0.2069,0 -0.41379,0 -0.55172,0c-0.13793,0 -0.2069,0 -0.27586,0c-0.06897,0 -0.13793,0 -0.13793,0l0,0l0.06896,0" id="svg_15" stroke-linecap="null" stroke-linejoin="null" stroke-dasharray="null" stroke-width="null" stroke="#000000" fill="none"/>
  <path d="m17.65517,21.17241c0,0 -0.13793,0 -0.2069,0c0,0 -0.13793,0 -0.2069,0c-0.13793,0 -0.2069,0 -0.27586,0c-0.06897,0 -0.13793,0 -0.2069,0c-0.06897,0 -0.13793,0 -0.13793,0c-0.06897,0 -0.13793,0 -0.2069,0c-0.06897,0 -0.06897,0 -0.13793,0l-0.06897,0" id="svg_16" stroke-linecap="null" stroke-linejoin="null" stroke-dasharray="null" stroke-width="null" stroke="#000000" fill="none"/>
  <path d="m17.24138,23.44828c-0.06897,0 -0.13793,0 -0.27586,0c-0.06897,0 -0.2069,0 -0.34483,0c-0.06897,0 -0.2069,0 -0.27586,0c-0.13793,0 -0.2069,0 -0.27586,0c0,0 -0.15813,-0.04877 -0.2069,0c-0.04877,0.04877 -0.06897,0.06896 0,0.06896l0.06896,0.06897" id="svg_17" stroke-linecap="null" stroke-linejoin="null" stroke-dasharray="null" stroke-width="null" stroke="#000000" fill="none"/>
  <path d="m17.17241,25.72414c0,-0.06897 -0.06896,-0.06897 -0.13793,-0.06897c-0.06897,0 -0.13793,0 -0.27586,0c-0.06897,0 -0.2069,0 -0.34483,0c0,0 -0.06897,0 -0.13793,0c-0.06897,0 -0.06897,0 -0.13793,0l0.06896,0" id="svg_18" stroke-linecap="null" stroke-linejoin="null" stroke-dasharray="null" stroke-width="null" stroke="#000000" fill="none"/>
  <path d="m18,27.93103c-0.06897,0 -0.2069,0 -0.27586,0c-0.06897,0 -0.13793,0 -0.2069,0c-0.06896,0 -0.2069,0 -0.27586,0c-0.06897,0 -0.15813,0.04877 -0.2069,0c-0.04877,-0.04877 -0.06897,-0.06897 -0.06897,-0.06897l-0.06897,0" id="svg_19" stroke-linecap="null" stroke-linejoin="null" stroke-dasharray="null" stroke-width="null" stroke="#000000" fill="none"/>
 </g>
</svg>
