<?xml version="1.0" encoding="utf-8"?>
<!-- Generator: Adobe Illustrator 15.0.0, SVG Export Plug-In . SVG Version: 6.00 Build 0)  -->
<!DOCTYPE svg PUBLIC "-//W3C//DTD SVG 1.1//EN" "http://www.w3.org/Graphics/SVG/1.1/DTD/svg11.dtd">
<svg version="1.1" id="Layer_1" xmlns="http://www.w3.org/2000/svg" xmlns:xlink="http://www.w3.org/1999/xlink" x="0px" y="0px"
	 width="40px" height="40px" viewBox="0 0 40 40" enable-background="new 0 0 40 40" xml:space="preserve">
<linearGradient id="SVGID_1_" gradientUnits="userSpaceOnUse" x1="306" y1="-362.0303" x2="306" y2="-347.2803" gradientTransform="matrix(1 0 0 -1 -286 -335)">
	<stop  offset="0.5" style="stop-color:#B5B5B5"/>
	<stop  offset="0.5" style="stop-color:#141414"/>
</linearGradient>
<path fill="url(#SVGID_1_)" stroke="#000000" stroke-miterlimit="10" d="M3.654,15.142c-2.362,0.59-2.166,9.122,0.065,10.17
	C5.95,26.363,7,23.016,8.969,22.951c1.969-0.065,3.938,2.765,14.436,2.82c0.199,0.002-0.193,0.002,0,0
	c1.133-0.006-1.483,1.332-0.521,1.256c1.111-0.088,6.364-1.602,7.27-1.764c6.412-1.158,7.886-3.984,7.886-5.265
	c0-1.368-0.124-4.248-8.123-5.594c-0.802-0.135-6.743-2.025-7.694-2.123c-0.582-0.06,1.896,1.459,1.252,1.415
	c-0.416-0.029,0.441,0.021,0,0c-9.641-0.473-12.729,3.281-14.306,3.281S6.016,14.551,3.654,15.142z"/>
<ellipse fill="#FFFFFF" stroke="#000000" stroke-miterlimit="10" cx="33.184" cy="17.741" rx="0.197" ry="0.222"/>
<ellipse fill="#FFFFFF" stroke="#000000" stroke-miterlimit="10" cx="33.184" cy="21.741" rx="0.197" ry="0.222"/>
</svg>
