<?xml version="1.0" encoding="utf-8"?>
<!-- Generator: Adobe Illustrator 15.0.0, SVG Export Plug-In . SVG Version: 6.00 Build 0)  -->
<!DOCTYPE svg PUBLIC "-//W3C//DTD SVG 1.1//EN" "http://www.w3.org/Graphics/SVG/1.1/DTD/svg11.dtd">
<svg version="1.1" id="Layer_1" xmlns="http://www.w3.org/2000/svg" xmlns:xlink="http://www.w3.org/1999/xlink" x="0px" y="0px"
	 width="40px" height="40px" viewBox="0 0 40 40" enable-background="new 0 0 40 40" xml:space="preserve">
<radialGradient id="SVGID_1_" cx="-836.0947" cy="395" r="8.7316" gradientTransform="matrix(-1 0 0 1 -816.0947 -375)" gradientUnits="userSpaceOnUse">
	<stop  offset="0" style="stop-color:#FFFFFF"/>
	<stop  offset="0" style="stop-color:#FAF2EE"/>
	<stop  offset="1" style="stop-color:#000000"/>
</radialGradient>
<ellipse fill="url(#SVGID_1_)" cx="20" cy="20" rx="8.874" ry="8.587"/>
<path fill="#FFFFFF" d="M26.75,14.422c-1.878,0.891-11.76,5.577-11.76,5.577s10.822,4.972,11.76,5.58
	C27.438,25.625,29.813,17.188,26.75,14.422z"/>
<ellipse fill="none" stroke="#000000" stroke-miterlimit="10" cx="20" cy="20" rx="8.874" ry="8.587"/>
<path stroke="#180C17" stroke-miterlimit="10" d="M25.869,20.317c0,1.654,1.971,4.617,2.318,2.994
	c0.646-3.004,0.686-3.312,0.242-5.989C28.16,15.686,25.869,18.663,25.869,20.317z"/>
<polyline fill="none" stroke="#180C17" stroke-miterlimit="10" points="26.744,14.422 15.303,19.999 26.744,25.579 "/>
<g id="Layer_2" display="none">
	<path display="inline" fill="#FFFFFF" d="M27.063,14.422c-1.877,0.891-11.759,5.577-11.759,5.577s10.822,4.972,11.759,5.58
		C27.75,25.625,30.125,17.188,27.063,14.422z"/>
</g>
</svg>
