<svg width="40" height="40" xmlns="http://www.w3.org/2000/svg">
 <!-- Created with SVG-edit - http://svg-edit.googlecode.com/ -->
 <g>
  <title>Layer 1</title>
  <path id="svg_1" d="m5.84615,8.46154l6.15385,-3.69231l6.76923,1.53846c0,0 8.61539,-0.46154 8.61539,-0.76923c0,-0.30769 4.30769,1.23077 4.30769,1.23077c0,0 0,7.53846 0,7.53846c0,0 -4.46154,0.61538 -4.46154,0.61538c0,0 2.30769,4.30769 2.30769,4.30769c0,0 5.23077,5.23077 5.23077,5.23077c0,0 -0.61538,3.53846 -0.61538,3.53846c0,0 -4,2.46154 -4.30769,2.61539c-0.30769,0.15384 -4.92308,1.38461 -5.07692,1.38461c-0.15385,0 -4,-2.46154 -4.30769,-2.46154c-0.30769,0 -1.84615,1.07692 -2,1.07692c-0.15385,0 -6.30769,2.92307 -6.30769,2.92307c0,0 -3.69231,-4 -3.69231,-4c0,0 1.38462,-10 1.53846,-10c0.15385,0 -6,-0.76923 -6,-0.76923c0,0 0,-5.23077 0,-5.23077c0,0 2.76923,-2 2.76923,-2c0,0 -0.92308,-3.07692 -0.92308,-3.07692l-0.00001,0.00002z" stroke-linecap="null" stroke-linejoin="null" stroke-dasharray="null" stroke-width="null" stroke="#ff7744" fill="#cc6644"/>
 </g>
</svg>
